<svg id="Layer_1" data-name="Layer 1" xmlns="http://www.w3.org/2000/svg" viewBox="0 0 400.37 126.6"><defs><style>.cls-1{fill:#fff;}</style></defs><path class="cls-1" d="M6.28,135.88a10.68,10.68,0,0,1,4-4.25A11.1,11.1,0,0,1,16,130.12a10.49,10.49,0,0,1,5.39,1.34,8.88,8.88,0,0,1,3.41,3.36v-4.31h4v23.64h-4v-4.4a9.29,9.29,0,0,1-3.47,3.43A10.36,10.36,0,0,1,16,154.54a10.79,10.79,0,0,1-5.7-1.55,11,11,0,0,1-4-4.36,13.56,13.56,0,0,1-1.47-6.39A13.27,13.27,0,0,1,6.28,135.88Zm17.47,1.75a7.62,7.62,0,0,0-2.91-3,7.88,7.88,0,0,0-4-1.06,8,8,0,0,0-4,1,7.65,7.65,0,0,0-2.89,3,9.74,9.74,0,0,0-1.07,4.66A10,10,0,0,0,9.9,147,7.63,7.63,0,0,0,12.79,150a7.79,7.79,0,0,0,4,1.06,7.88,7.88,0,0,0,4-1.06A7.55,7.55,0,0,0,23.75,147a9.74,9.74,0,0,0,1.08-4.68A9.58,9.58,0,0,0,23.75,137.63Z" transform="translate(-4.81 -39.2)"/><path class="cls-1" d="M54,132.69q2.67,2.61,2.67,7.53v13.93H52.74V140.78A7.61,7.61,0,0,0,51,135.36a6.32,6.32,0,0,0-4.83-1.87,6.45,6.45,0,0,0-4.94,1.94,7.94,7.94,0,0,0-1.83,5.65v13.07H35.44V130.51h3.93v3.36a7.83,7.83,0,0,1,3.17-2.8,9.86,9.86,0,0,1,4.42-1A9.57,9.57,0,0,1,54,132.69Z" transform="translate(-4.81 -39.2)"/><path class="cls-1" d="M78.17,131.46a8.87,8.87,0,0,1,3.43,3.36v-4.31h4v24.16a11.85,11.85,0,0,1-1.38,5.76,9.79,9.79,0,0,1-4,3.94,12.09,12.09,0,0,1-6,1.43,13.16,13.16,0,0,1-7.77-2.2,8.59,8.59,0,0,1-3.66-6h3.88a6.13,6.13,0,0,0,2.67,3.47,8.77,8.77,0,0,0,4.88,1.32,7.18,7.18,0,0,0,5.28-2,7.63,7.63,0,0,0,2-5.69v-5a9.35,9.35,0,0,1-3.45,3.45,10.15,10.15,0,0,1-5.35,1.38,10.76,10.76,0,0,1-9.75-5.91,13.56,13.56,0,0,1-1.46-6.39,13.27,13.27,0,0,1,1.46-6.36,10.68,10.68,0,0,1,4-4.25,11.1,11.1,0,0,1,5.71-1.51A10.54,10.54,0,0,1,78.17,131.46Zm2.35,6.17a7.62,7.62,0,0,0-2.91-3,8.26,8.26,0,0,0-8,0,7.52,7.52,0,0,0-2.89,3,9.63,9.63,0,0,0-1.08,4.66A9.83,9.83,0,0,0,66.68,147,7.5,7.5,0,0,0,69.57,150a7.73,7.73,0,0,0,4,1.06,7.85,7.85,0,0,0,4-1.06A7.55,7.55,0,0,0,80.52,147a9.74,9.74,0,0,0,1.08-4.68A9.58,9.58,0,0,0,80.52,137.63Z" transform="translate(-4.81 -39.2)"/><path class="cls-1" d="M113.66,143.8H94.76a7.44,7.44,0,0,0,7.68,7.42,7.29,7.29,0,0,0,4.25-1.19,6.31,6.31,0,0,0,2.39-3.17h4.23a10.13,10.13,0,0,1-3.8,5.54,11.39,11.39,0,0,1-7.07,2.14,11.93,11.93,0,0,1-6-1.51,10.68,10.68,0,0,1-4.16-4.29,13.3,13.3,0,0,1-1.51-6.45,13.58,13.58,0,0,1,1.46-6.43,10.36,10.36,0,0,1,4.12-4.25,12.32,12.32,0,0,1,6.11-1.49,11.83,11.83,0,0,1,6,1.47,10.11,10.11,0,0,1,4,4,11.85,11.85,0,0,1,1.4,5.8C113.78,142.17,113.74,143,113.66,143.8Zm-4.92-7.06a6.55,6.55,0,0,0-2.7-2.46,8.41,8.41,0,0,0-3.77-.84,7.29,7.29,0,0,0-5.07,1.9,7.72,7.72,0,0,0-2.4,5.26h14.93A7.27,7.27,0,0,0,108.74,136.74Z" transform="translate(-4.81 -39.2)"/><path class="cls-1" d="M122.89,122.23v31.92H119V122.23Z" transform="translate(-4.81 -39.2)"/><path class="cls-1" d="M133.07,153.61a8.18,8.18,0,0,1-3.41-2.59,6.78,6.78,0,0,1-1.38-3.82h4.05a4,4,0,0,0,1.66,2.9,6.41,6.41,0,0,0,3.91,1.12,5.66,5.66,0,0,0,3.54-1,3,3,0,0,0,1.29-2.5,2.48,2.48,0,0,0-1.38-2.31,19.78,19.78,0,0,0-4.27-1.48,29.92,29.92,0,0,1-4.29-1.41,7.48,7.48,0,0,1-2.85-2.11,5.51,5.51,0,0,1-1.19-3.69,5.58,5.58,0,0,1,1.08-3.32,7.29,7.29,0,0,1,3.06-2.39,11.06,11.06,0,0,1,4.53-.89,9.63,9.63,0,0,1,6.34,2,7.12,7.12,0,0,1,2.59,5.43h-3.92a4.08,4.08,0,0,0-1.49-3,6.58,6.58,0,0,0-7-.21,2.77,2.77,0,0,0-1.25,2.37,2.6,2.6,0,0,0,.75,1.92,5.48,5.48,0,0,0,1.9,1.21,32.28,32.28,0,0,0,3.17,1,34.66,34.66,0,0,1,4.14,1.36,7.25,7.25,0,0,1,2.74,2,5.38,5.38,0,0,1,1.19,3.49,6,6,0,0,1-1.08,3.5,7.22,7.22,0,0,1-3,2.43,10.87,10.87,0,0,1-4.51.89A12.15,12.15,0,0,1,133.07,153.61Z" transform="translate(-4.81 -39.2)"/><path class="cls-1" d="M159.49,131.48a10.36,10.36,0,0,1,5.37-1.36,11.16,11.16,0,0,1,5.72,1.51,10.72,10.72,0,0,1,4,4.25,13.27,13.27,0,0,1,1.47,6.36,13.56,13.56,0,0,1-1.47,6.39,10.73,10.73,0,0,1-9.75,5.91,10.28,10.28,0,0,1-5.33-1.36,9.62,9.62,0,0,1-3.51-3.39v15.58h-3.93V130.51H156v4.36A9.35,9.35,0,0,1,159.49,131.48Zm11.5,6.1a7.52,7.52,0,0,0-2.92-3,8,8,0,0,0-4-1,7.79,7.79,0,0,0-4,1.06,7.66,7.66,0,0,0-2.93,3.06,9.42,9.42,0,0,0-1.1,4.64,9.52,9.52,0,0,0,1.1,4.68,7.66,7.66,0,0,0,2.93,3.06,8.11,8.11,0,0,0,8,0A7.5,7.5,0,0,0,171,147a10,10,0,0,0,1.07-4.73A9.74,9.74,0,0,0,171,137.58Z" transform="translate(-4.81 -39.2)"/><path class="cls-1" d="M185.54,153a10.82,10.82,0,0,1-4.22-4.29,13.2,13.2,0,0,1-1.53-6.45,12.79,12.79,0,0,1,1.57-6.41,10.87,10.87,0,0,1,4.29-4.27,13.17,13.17,0,0,1,12.17,0,10.89,10.89,0,0,1,4.29,4.25,12.74,12.74,0,0,1,1.57,6.43,12.61,12.61,0,0,1-1.61,6.45,11.28,11.28,0,0,1-4.38,4.29,12.51,12.51,0,0,1-6.13,1.51A12.09,12.09,0,0,1,185.54,153Zm10-2.93a7.6,7.6,0,0,0,3-3,10.89,10.89,0,0,0,0-9.66,7.33,7.33,0,0,0-2.93-3,8.49,8.49,0,0,0-7.88,0,7.05,7.05,0,0,0-2.86,3,10,10,0,0,0-1.08,4.83,10.31,10.31,0,0,0,1,4.87,7.11,7.11,0,0,0,2.83,3,8,8,0,0,0,3.88,1A8.32,8.32,0,0,0,195.53,150.1Z" transform="translate(-4.81 -39.2)"/><path class="cls-1" d="M215.74,131.2a9.11,9.11,0,0,1,4.68-1.12v4h-1q-6.6,0-6.6,7.16v12.86h-3.93V130.51h3.93v3.84A7.54,7.54,0,0,1,215.74,131.2Z" transform="translate(-4.81 -39.2)"/><path class="cls-1" d="M229.74,133.75v13.93a3.33,3.33,0,0,0,.73,2.44,3.65,3.65,0,0,0,2.55.71h2.89v3.32h-3.54a7.05,7.05,0,0,1-4.92-1.51q-1.63-1.51-1.64-5V133.75h-3.06v-3.24h3.06v-5.95h3.93v5.95h6.17v3.24Z" transform="translate(-4.81 -39.2)"/><path class="cls-1" d="M239.51,135.32a10.09,10.09,0,0,1,3.6-4.31,9.18,9.18,0,0,1,5.14-1.49,8.17,8.17,0,0,1,4.09,1,6.66,6.66,0,0,1,2.64,2.65v-3.32h9.53v24.33H255v-3.32a6.66,6.66,0,0,1-2.64,2.65,8.17,8.17,0,0,1-4.09,1,9.18,9.18,0,0,1-5.14-1.49,10.09,10.09,0,0,1-3.6-4.31,17.61,17.61,0,0,1,0-13.33ZM254,139a3.54,3.54,0,0,0-5.09,0,5.1,5.1,0,0,0,0,6,3.56,3.56,0,0,0,5.09,0,5.06,5.06,0,0,0,0-6Z" transform="translate(-4.81 -39.2)"/><path class="cls-1" d="M285.78,154.15l-6-9.71v9.71H270.2V122.23h9.58v16.69l6.08-9.1H297l-9.1,12.25,9.32,12.08Z" transform="translate(-4.81 -39.2)"/><path class="cls-1" d="M315.89,146v8.15h-3.63q-10,0-10-10V137.8h-3v-8h3V124h9.57v5.87h4v8h-4v6.56a1.68,1.68,0,0,0,.41,1.25,2,2,0,0,0,1.36.39Z" transform="translate(-4.81 -39.2)"/><path class="cls-1" d="M346.69,129.82v24.33h-9.58v-3.71a8.51,8.51,0,0,1-3,2.8,8.8,8.8,0,0,1-4.46,1.08,8.07,8.07,0,0,1-6.54-2.8,11.48,11.48,0,0,1-2.35-7.59V129.82h9.54v12.9a4,4,0,0,0,.92,2.74,3.59,3.59,0,0,0,5,0,4,4,0,0,0,.9-2.74v-12.9Z" transform="translate(-4.81 -39.2)"/><path class="cls-1" d="M375.81,143.67h-15.4c.14,2.1,1,3.15,2.63,3.15a2.33,2.33,0,0,0,2.24-1.43h10.14a10.52,10.52,0,0,1-2.18,4.64,11.69,11.69,0,0,1-4.18,3.24,12.91,12.91,0,0,1-5.55,1.18,13.47,13.47,0,0,1-6.45-1.51,10.73,10.73,0,0,1-4.4-4.33,14.76,14.76,0,0,1,0-13.25,10.73,10.73,0,0,1,4.4-4.33,14.62,14.62,0,0,1,12.9,0,10.6,10.6,0,0,1,4.4,4.25,12.92,12.92,0,0,1,1.58,6.51A14.54,14.54,0,0,1,375.81,143.67Zm-9.58-4.19a2.21,2.21,0,0,0-.78-1.83,3,3,0,0,0-1.94-.63,2.7,2.7,0,0,0-3,2.46Z" transform="translate(-4.81 -39.2)"/><path class="cls-1" d="M389.91,122.23v31.92h-9.57V122.23Z" transform="translate(-4.81 -39.2)"/><path class="cls-1" d="M405.19,122.23v31.92h-9.58V122.23Z" transform="translate(-4.81 -39.2)"/><path class="cls-1" d="M205,39.2a24.88,24.88,0,0,0-24.87,24.87h0A41.64,41.64,0,0,0,187.68,88l15.16,21.63a2.64,2.64,0,0,0,4.32,0L222.32,88a41.64,41.64,0,0,0,7.55-23.9h0A24.88,24.88,0,0,0,205,39.2Zm0,44.58a19.3,19.3,0,1,1,19.3-19.29A19.3,19.3,0,0,1,205,83.78Z" transform="translate(-4.81 -39.2)"/></svg>